<?xml version="1.0" standalone="no"?><!DOCTYPE svg PUBLIC "-//W3C//DTD SVG 1.1//EN" "http://www.w3.org/Graphics/SVG/1.1/DTD/svg11.dtd"><svg t="1607141274412" class="icon" viewBox="0 0 1024 1024" version="1.1" xmlns="http://www.w3.org/2000/svg" p-id="16073" xmlns:xlink="http://www.w3.org/1999/xlink" width="200" height="200"><defs><style type="text/css">@font-face { font-family: element-icons; src: url("chrome-extension://moombeodfomdpjnpocobemoiaemednkg/fonts/element-icons.woff") format("woff"), url("chrome-extension://moombeodfomdpjnpocobemoiaemednkg/fonts/element-icons.ttf ") format("truetype"); }
</style></defs><path d="M142.793143 920.649143H881.188571c89.142857 0 134.582857-44.580571 134.582858-132.864V339.072c0-88.283429-45.44-132.425143-134.582858-132.425143h-100.278857c-33.426286 0-43.702857-6.857143-62.994285-28.288l-34.724572-38.582857c-20.992-23.552-42.843429-36.425143-87.424-36.425143h-170.569143c-44.141714 0-66.011429 12.873143-87.424 36.425143l-34.724571 38.582857c-18.852571 20.992-29.568 28.288-62.994286 28.288h-97.28c-89.142857 0-134.582857 44.141714-134.582857 132.425143v448.713143c0 88.283429 45.44 132.864 134.582857 132.864z m369.005714-137.142857c-129.444571 0-233.581714-104.155429-233.581714-234.422857 0-130.304 104.137143-234.422857 233.563428-234.422858 130.285714 0 234.002286 104.118857 234.002286 234.422858 0 130.267429-104.137143 234.422857-234.002286 234.422857z m308.132572-339.017143c-29.147429 0-53.138286-23.552-53.138286-52.699429a53.138286 53.138286 0 1 1 106.276571 0c0 29.147429-23.990857 52.717714-53.138285 52.717715zM511.780571 718.372571a169.088 169.088 0 0 0 169.289143-169.289142 169.088 169.088 0 0 0-169.289143-169.289143c-93.44 0-168.850286 75.446857-168.850285 169.289143 0 93.860571 75.849143 169.289143 168.850285 169.289142z" p-id="16074"></path></svg>