<svg t="1607267050849" class="icon" viewBox="0 0 1024 1024" version="1.1" xmlns="http://www.w3.org/2000/svg" p-id="9854" width="200" height="200"><path d="M810.666667 256h-85.333334c0-117.76-95.573333-213.333333-213.333333-213.333333S298.666667 138.24 298.666667 256h-85.333334c-47.146667 0-84.906667 38.186667-84.906666 85.333333L128 853.333333c0 47.146667 38.186667 85.333333 85.333333 85.333334h597.333334c47.146667 0 85.333333-38.186667 85.333333-85.333334V341.333333c0-47.146667-38.186667-85.333333-85.333333-85.333333zM512 128c70.613333 0 128 57.386667 128 128H384c0-70.613333 57.386667-128 128-128z m0 426.666667c-117.76 0-213.333333-95.573333-213.333333-213.333334h85.333333c0 70.613333 57.386667 128 128 128s128-57.386667 128-128h85.333333c0 117.76-95.573333 213.333333-213.333333 213.333334z" p-id="9855" fill="#ee0a24"></path></svg>
